<?xml version="1.0" encoding="utf-8"?>
<!-- Generator: Adobe Illustrator 26.0.3, SVG Export Plug-In . SVG Version: 6.00 Build 0)  -->
<svg version="1.1" id="Слой_1" xmlns="http://www.w3.org/2000/svg" xmlns:xlink="http://www.w3.org/1999/xlink" x="0px" y="0px"
	 viewBox="0 0 128 128" style="enable-background:new 0 0 128 128;" xml:space="preserve">
<style type="text/css">
	.st0{fill:#6666FF;}
	.st1{fill:url(#SVGID_1_);}
</style>
<path class="st0" d="M35.5,31h-18v-0.7C17.5,14,30.7,0.8,47,0.8h18v0.7C65,17.8,51.8,31,35.5,31z"/>
<path class="st0" d="M49.2,70.3c0,0.2,0,0.5,0,0.7c0,0.1,0,0.2,0,0.2v48.3c0,4.4-3.6,8-8,8H25.5c-4.4,0-8-3.6-8-8V59.2
	c0-12.3,10.5-22.3,23.4-22.3h33.3C59.7,41.1,49.2,54.5,49.2,70.3z"/>
<linearGradient id="SVGID_1_" gradientUnits="userSpaceOnUse" x1="57.5205" y1="65.6107" x2="110.2935" y2="34.5824" gradientTransform="matrix(1 0 0 -1 0 128)">
	<stop  offset="0" style="stop-color:#333399"/>
	<stop  offset="0.1026" style="stop-color:#3C3CAB"/>
	<stop  offset="0.389" style="stop-color:#5353D8"/>
	<stop  offset="0.6104" style="stop-color:#6161F5"/>
	<stop  offset="0.7382" style="stop-color:#6666FF"/>
</linearGradient>
<path class="st1" d="M112.5,59.2v60.3c0,4.4-3.6,8-8,8H88.8c-4.4,0-8-3.6-8-8V71.2c0-2.3-1.9-4.2-4.3-4.2h-23c-2.2,0-4,1.5-4.3,3.5
	c-0.1,0,0.1,0-0.1,0c-0.1-15.9,10.5-29.4,25-33.7h14.9C102,36.9,112.5,46.9,112.5,59.2z"/>
</svg>